<svg xmlns="http://www.w3.org/2000/svg" xmlns:xlink="http://www.w3.org/1999/xlink" width="36" height="36" viewBox="0 0 36 36">
    <defs>
        <path id="prefix__a" d="M0 0.016L16.995 0.016 16.995 20.058 0 20.058z"/>
    </defs>
    <g fill="none" fill-rule="evenodd">
        <circle cx="18" cy="18" r="18" fill="#00A82D"/>
        <g>
            <path fill="#FEFEFE" d="M5.311 1.032l-4.62 4.62h3.817c.444 0 .803-.36.803-.803V1.032z" transform="translate(9 8)"/>
            <g transform="translate(9 8) translate(0 .106)">
                <mask id="prefix__b" fill="#fff">
                    <use xlink:href="#prefix__a"/>
                </mask>
                <path fill="#FEFEFE" d="M14.423 9.68c-.419.064-1.206.117-1.807-.24-.14-.082-.183-.27-.084-.399.156-.202.463-.458 1.022-.458.6 0 .91.44 1.054.749.07.15-.023.324-.185.348m2.05-4.715c-.277-1.713-1.027-2.524-2.713-2.868-1.12-.227-2.251-.404-3.377-.607-.184-.033-.404-.009-.494-.24C9.443.084 8.457.002 7.426.016 6.37.032 5.888.514 5.88 1.577c-.006 1.063.015 2.125-.01 3.188-.017.794-.33 1.19-1.035 1.255-.868.08-1.741.105-2.612.02-.257-.026-.516-.026-.77.016-1.713.287-1.635 1.672-1.16 3.83.515 2.343 1.64 3.282 1.64 3.282 1.117.892 2.387 1.343 3.814 1.44 1.134.077 1.862-.39 2.284-1.415l.592-1.441c.583 1.337 1.642 1.738 2.843 1.918 1.078.16 1.83.75 2.203 1.776.308.844.047 1.75-.614 2.302-.608.506-1.435.617-2.057.267-.384-.216-.664-.515-.608-.985.051-.429.367-.601.763-.677.491-.093.8-.38.698-.907-.106-.536-.523-.63-1-.584-.963.093-1.839.816-2.126 1.763-.301.999.03 2.042.866 2.67.857.643 1.825.875 2.877.712 2.329-.357 3.872-1.99 4.236-4.606.486-3.486.332-6.967-.231-10.436" mask="url(#prefix__b)"/>
            </g>
        </g>
    </g>
</svg>
