<svg xmlns="http://www.w3.org/2000/svg" width="48" height="48" viewBox="0 0 48 48">
    <g fill="none" fill-rule="evenodd">
        <circle cx="24" cy="24" r="24" fill="#E5F8F7"/>
        <rect width="28" height="20" x="9" y="12" fill="#FFF" rx="2"/>
        <g transform="translate(25 21)">
            <rect width="16" height="16" fill="#FFF" rx="3.4"/>
            <path fill="#00BDB8" d="M10.903 9.675l-2.627 1.181-.43.615c-.022.03-.064.038-.094.016L5.134 9.654c-.03-.021-.038-.063-.016-.094l.433-.612.212-2.872c.003-.052.062-.08.105-.05l5.046 3.533c.042.03.036.095-.011.116M7.18 11.868l-.399.57c-.02.023-.053.031-.08.031l-3.126.002c-.042-.015-.059-.066-.033-.102l1.434-2.045c.02-.03.063-.038.093-.016l2.095 1.466c.03.022.037.063.016.094m8.744-9.257L11.39 9.083c-.029.041-.085.052-.127.022l-5.09-3.563c-.04-.03-.05-.086-.022-.127L9.943 0H3.32C1.486 0 0 1.486 0 3.319v9.362C0 14.514 1.486 16 3.319 16h9.362C14.514 16 16 14.514 16 12.681V3.32c0-.243-.027-.48-.076-.708"/>
        </g>
        <path fill="#00BDB8" d="M11 12h24c1.105 0 2 .895 2 2v1H9v-1c0-1.105.895-2 2-2z"/>
    </g>
</svg>
