<svg xmlns="http://www.w3.org/2000/svg" width="24" height="24" viewBox="0 0 24 24">
    <path fill="#787D86" fill-rule="evenodd" d="M13.002 4.501c0-.445.538-.669.853-.354l7 7c.195.196.195.512 0 .708l-7 7c-.315.315-.853.091-.853-.354v-4.002c-4.102-.017-6.219.736-9.111 4.316-.337.417-1.005.084-.874-.436 1.747-6.941 5.112-9.603 9.727-9.858l.258-.011V4.5zm1 1.207v3.293c0 .276-.224.5-.5.5-4.058 0-7.058 1.795-8.886 7.006 2.392-2.363 4.611-2.988 8.087-3.008l.799.002c.276 0 .5.224.5.5v3.293l5.793-5.793-5.793-5.793z"/>
</svg>
